<?xml version="1.0" encoding="utf-8"?>
<!-- Generator: Adobe Illustrator 19.2.1, SVG Export Plug-In . SVG Version: 6.00 Build 0)  -->
<svg version="1.1" id="Layer_1" xmlns="http://www.w3.org/2000/svg" xmlns:xlink="http://www.w3.org/1999/xlink" x="0px" y="0px"
	 viewBox="0 0 404.6 128" style="enable-background:new 0 0 404.6 128;" xml:space="preserve">
<style type="text/css">
	.st0{fill:#ffffff;}
	.st1{fill:#E04325;}
	.st2{fill:#42a1d6;}
</style>
<g>
	<path class="st0" d="M43.4,46.4l-0.5-1.9h-3.3l-0.5,1.9h-3l3.3-10.2H43l3.4,10.2H43.4z M42.3,42.2l-0.4-1.7
		c-0.1-0.4-0.2-0.9-0.4-1.4c-0.1-0.6-0.2-1-0.3-1.3c0,0.2-0.1,0.6-0.2,1.2c-0.1,0.5-0.4,1.6-0.8,3.2H42.3z"/>
	<path class="st0" d="M52.4,46.4l-2.1-7.3h-0.1c0.1,1.2,0.1,2.2,0.1,2.9v4.4H48V36.2h3.7l2.1,7.2h0.1l2.1-7.2h3.7v10.2h-2.5v-4.5
		c0-0.2,0-0.5,0-0.8c0-0.3,0-1,0.1-2.1h-0.1l-2.1,7.3H52.4z"/>
	<path class="st0" d="M68.3,46.4h-6V36.2h6v2.2H65V40h3v2.2h-3v1.9h3.3V46.4z"/>
	<path class="st0" d="M73.3,42.7v3.7h-2.7V36.2h3.3c2.8,0,4.1,1,4.1,3c0,1.2-0.6,2.1-1.7,2.7l3,4.4h-3.1L74,42.7H73.3z M73.3,40.6
		h0.5c1,0,1.4-0.4,1.4-1.3c0-0.7-0.5-1.1-1.4-1.1h-0.5V40.6z"/>
	<path class="st0" d="M80.7,46.4V36.2h2.8v10.2H80.7z"/>
	<path class="st0" d="M90.7,38.3c-0.7,0-1.2,0.3-1.5,0.8c-0.4,0.5-0.5,1.3-0.5,2.2c0,2,0.7,2.9,2.2,2.9c0.4,0,0.9-0.1,1.3-0.2
		c0.4-0.1,0.8-0.3,1.3-0.5V46c-0.8,0.4-1.8,0.6-2.9,0.6c-1.5,0-2.7-0.4-3.5-1.3s-1.2-2.2-1.2-3.9c0-1.1,0.2-2,0.6-2.8
		c0.4-0.8,1-1.4,1.7-1.8c0.7-0.4,1.6-0.6,2.6-0.6c1.1,0,2.1,0.2,3.2,0.7L93.1,39c-0.4-0.2-0.8-0.3-1.1-0.4
		C91.6,38.4,91.2,38.3,90.7,38.3z"/>
	<path class="st0" d="M102.2,46.4l-0.5-1.9h-3.3l-0.5,1.9h-3l3.3-10.2h3.7l3.4,10.2H102.2z M101.1,42.2l-0.4-1.7
		c-0.1-0.4-0.2-0.9-0.4-1.4c-0.1-0.6-0.2-1-0.3-1.3c0,0.2-0.1,0.6-0.2,1.2c-0.1,0.5-0.4,1.6-0.8,3.2H101.1z"/>
	<path class="st0" d="M116.5,46.4h-3.6l-3.7-7.2h-0.1c0.1,1.1,0.1,2,0.1,2.6v4.6h-2.4V36.2h3.6l3.7,7.1h0c-0.1-1-0.1-1.8-0.1-2.5
		v-4.6h2.4V46.4z"/>
	<path class="st1" d="M49.5,90.6L36.1,55.4h12.7l6,20.9c0,0.1,0.1,0.3,0.1,0.5s0.1,0.5,0.2,0.9c0.1,0.3,0.1,0.7,0.2,1.1
		s0.1,0.7,0.1,1.1h0.2c0-1.1,0.2-2.3,0.6-3.5l6.3-20.9H75L61.6,90.6H49.5z"/>
	<path class="st1" d="M112.9,72.9c0,5.8-1.6,10.3-4.7,13.5c-3.1,3.2-7.4,4.8-13,4.8c-5.4,0-9.6-1.7-12.8-5
		c-3.2-3.3-4.7-7.8-4.7-13.4c0-5.7,1.6-10.2,4.7-13.4c3.1-3.2,7.5-4.8,13.1-4.8c3.5,0,6.5,0.7,9.2,2.2c2.7,1.5,4.7,3.6,6.1,6.3
		S112.9,69.3,112.9,72.9z M90,72.9c0,3,0.4,5.3,1.2,6.9c0.8,1.6,2.2,2.4,4.1,2.4c1.9,0,3.2-0.8,4-2.4c0.8-1.6,1.2-3.9,1.2-6.9
		c0-3-0.4-5.3-1.2-6.8c-0.8-1.5-2.1-2.3-4-2.3c-1.9,0-3.2,0.8-4,2.3C90.4,67.6,90,69.9,90,72.9z"/>
	<path class="st1" d="M137.1,81.7c1.6,0,3.6-0.4,5.9-1.2v8.9c-1.6,0.7-3.2,1.2-4.7,1.5c-1.5,0.3-3.2,0.5-5.2,0.5c-4.1,0-7-1-8.8-3
		c-1.8-2-2.7-5.1-2.7-9.2V64.5h-4.3v-4.9l5.4-3.8l3.1-7.4h8v7.1h8.7v9.1h-8.7v13.7C133.8,80.5,134.9,81.7,137.1,81.7z"/>
	<path class="st1" d="M166.2,91.3c-5.9,0-10.4-1.6-13.7-4.7c-3.2-3.1-4.9-7.6-4.9-13.3c0-6,1.5-10.5,4.5-13.7
		c3-3.2,7.3-4.8,12.9-4.8c5.3,0,9.4,1.4,12.3,4.2c2.9,2.8,4.3,6.8,4.3,12v5.4h-21.8c0.1,2,0.8,3.5,2.2,4.6c1.4,1.1,3.2,1.7,5.6,1.7
		c2.1,0,4.1-0.2,5.9-0.6c1.8-0.4,3.7-1.1,5.8-2.1v8.7c-1.9,1-3.9,1.6-5.9,2C171.4,91.1,169,91.3,166.2,91.3z M165.5,63
		c-1.4,0-2.6,0.5-3.6,1.4c-1,0.9-1.5,2.3-1.7,4.2h10.5c0-1.7-0.5-3.1-1.4-4.1S167,63,165.5,63z"/>
	<path class="st1" d="M209.8,54.8c1.1,0,2.1,0.1,3,0.2l0.7,0.1l-1.1,11.5c-1-0.2-2.4-0.4-4.1-0.4c-2.7,0-4.6,0.6-5.8,1.8
		c-1.2,1.2-1.8,3-1.8,5.2v17.3h-12.2V55.4h9.1l1.9,5.6h0.6c1-1.9,2.4-3.4,4.2-4.5C206.2,55.3,208,54.8,209.8,54.8z"/>
	<path class="st2" d="M246.3,56.8V59l-7,0.4c1.9,2.3,2.8,4.9,2.8,7.7c0,3.3-1.1,5.9-3.3,7.9s-5.1,3-8.7,3c-1.5,0-2.6-0.1-3.2-0.2
		c-1.2,0.6-2.2,1.4-2.8,2.3c-0.6,0.9-1,1.8-1,2.8c0,1.1,0.4,1.9,1.2,2.4c0.8,0.5,2.2,0.7,4.1,0.7h5.9c3.7,0,6.5,0.7,8.4,2.2
		s2.9,3.7,2.9,6.6c0,3.6-1.4,6.3-4.3,8.3s-7,2.9-12.4,2.9c-4.3,0-7.5-0.8-9.9-2.5c-2.3-1.6-3.5-3.9-3.5-6.8c0-2.3,0.7-4.3,2.2-5.8
		s3.4-2.6,5.9-3.1c-1-0.4-1.8-1.1-2.4-1.9c-0.6-0.8-0.9-1.7-0.9-2.8c0-2.3,1.4-4.3,4.3-6c-2-0.8-3.5-2.1-4.6-3.8
		c-1.1-1.7-1.6-3.7-1.6-6c0-3.4,1.1-6.1,3.2-8.1s5-3.1,8.7-3.1c2.2,0,3.9,0.2,5.2,0.7H246.3z M218.9,96.4c0,4.6,3.5,7,10.4,7
		c8.9,0,13.3-2.8,13.3-8.5c0-2-0.7-3.5-2.1-4.4c-1.4-0.9-3.6-1.4-6.8-1.4h-5.5C222,89.1,218.9,91.5,218.9,96.4z M221.5,67.4
		c0,2.6,0.8,4.6,2.4,6.1c1.6,1.4,3.7,2.2,6.4,2.2c2.8,0,5-0.7,6.5-2.1c1.5-1.4,2.3-3.5,2.3-6.2c0-2.9-0.8-5-2.3-6.5
		c-1.5-1.4-3.7-2.2-6.5-2.2c-2.7,0-4.8,0.8-6.4,2.3C222.3,62.5,221.5,64.6,221.5,67.4z"/>
	<path class="st2" d="M255.9,56.8v21.9c0,3.4,0.7,5.9,2.1,7.4c1.4,1.5,3.7,2.3,6.7,2.3c4,0,7-1,8.9-3.1c1.9-2,2.8-5.3,2.8-9.9V56.8
		h3.1v33.8h-2.6l-0.6-4.7h-0.2c-2.2,3.5-6.1,5.3-11.7,5.3c-7.7,0-11.5-4.1-11.5-12.4V56.8H255.9z"/>
	<path class="st2" d="M290.4,47.4c0-2,0.7-3,2-3c0.6,0,1.1,0.3,1.5,0.8c0.4,0.5,0.5,1.3,0.5,2.2c0,0.9-0.2,1.7-0.5,2.2
		c-0.4,0.5-0.9,0.8-1.5,0.8C291.1,50.4,290.4,49.4,290.4,47.4z M294,90.6h-3.1V56.8h3.1V90.6z"/>
	<path class="st2" d="M317.7,56.2c2.4,0,4.6,0.4,6.4,1.3c1.8,0.9,3.4,2.4,4.8,4.6h0.2c-0.1-2.6-0.2-5.2-0.2-7.7V42.2h3.1v48.4h-2
		l-0.8-5.2h-0.2c-2.6,3.9-6.3,5.8-11.1,5.8c-4.7,0-8.2-1.5-10.7-4.4s-3.7-7.1-3.7-12.7c0-5.9,1.2-10.3,3.7-13.4
		C309.4,57.7,313,56.2,317.7,56.2z M317.7,59c-3.7,0-6.5,1.3-8.3,3.9c-1.9,2.6-2.8,6.4-2.8,11.3c0,9.6,3.7,14.4,11.2,14.4
		c3.8,0,6.6-1.1,8.4-3.3c1.8-2.2,2.7-5.9,2.7-11v-0.5c0-5.2-0.9-9-2.6-11.3C324.4,60.1,321.6,59,317.7,59z"/>
	<path class="st2" d="M356.9,91.3c-4.9,0-8.8-1.5-11.5-4.5s-4.1-7.3-4.1-12.7c0-5.4,1.3-9.7,4-13s6.2-4.9,10.7-4.9
		c4,0,7.1,1.4,9.4,4.2c2.3,2.8,3.5,6.6,3.5,11.3v2.5h-24.4c0,4.6,1.1,8.2,3.3,10.6c2.1,2.4,5.2,3.7,9.1,3.7c1.9,0,3.6-0.1,5.1-0.4
		c1.5-0.3,3.3-0.9,5.6-1.7v2.8c-1.9,0.8-3.7,1.4-5.3,1.7C360.6,91.1,358.8,91.3,356.9,91.3z M356,58.9c-3.3,0-5.9,1.1-7.8,3.2
		c-2,2.1-3.1,5.2-3.5,9.3h20.9c0-3.9-0.9-7-2.6-9.2C361.4,60,359,58.9,356,58.9z"/>
</g>
</svg>
